<svg width="67" height="66" viewBox="0 0 67 66" fill="none" xmlns="http://www.w3.org/2000/svg">
<path d="M66.1638 33.8665C66.1638 31.1851 65.9411 29.2284 65.4592 27.1992H34.1225V39.3017H52.5164C52.1457 42.3094 50.1431 46.8388 45.6929 49.8824L45.6305 50.2876L55.5386 57.7875L56.225 57.8544C62.5293 52.1654 66.1638 43.795 66.1638 33.8665Z" fill="#4285F4"/>
<path d="M34.1226 65.7538C43.1341 65.7538 50.6993 62.8548 56.2251 57.8545L45.693 49.8825C42.8746 51.803 39.0918 53.1437 34.1226 53.1437C25.2965 53.1437 17.8054 47.4549 15.1351 39.5918L14.7436 39.6243L4.4411 47.4149L4.30637 47.7809C9.79485 58.434 21.0686 65.7538 34.1226 65.7538Z" fill="#34A853"/>
<path d="M15.135 39.5918C14.4304 37.5627 14.0226 35.3884 14.0226 33.1419C14.0226 30.8952 14.4304 28.7211 15.0979 26.692L15.0793 26.2598L4.64763 18.344L4.30633 18.5026C2.04426 22.9234 0.746277 27.8878 0.746277 33.1419C0.746277 38.396 2.04426 43.3601 4.30633 47.7809L15.135 39.5918Z" fill="#FBBC05"/>
<path d="M34.1226 13.1398C40.3898 13.1398 44.6174 15.785 47.028 17.9955L56.4475 9.00901C50.6625 3.75488 43.1341 0.529907 34.1226 0.529907C21.0686 0.529907 9.79485 7.84942 4.30637 18.5026L15.098 26.6919C17.8054 18.8288 25.2965 13.1398 34.1226 13.1398Z" fill="#EB4335"/>
</svg>
