<svg width="59" height="72" viewBox="0 0 59 72" fill="none" xmlns="http://www.w3.org/2000/svg">
<path d="M56.6908 24.7767C56.35 24.986 48.855 29.3326 48.9402 38.3753C49.0344 49.1913 58.4589 52.793 58.5672 52.8339C58.4827 53.0914 57.0604 57.9639 53.5993 62.996C50.6081 67.3555 47.5097 71.6902 42.6193 71.7807C37.8147 71.8684 36.2662 68.9411 30.7776 68.9411C25.2855 68.9411 23.5665 71.6902 19.0231 71.8684C14.3028 72.0463 10.7091 67.1607 7.6959 62.8252C1.53609 53.9526 -3.17356 37.7506 3.1504 26.8166C6.28997 21.3864 11.9016 17.9461 17.9903 17.8573C22.6274 17.77 27.0005 20.9624 29.8368 20.9624C32.6327 20.9624 37.6435 17.2409 43.5499 17.6762C45.8648 17.847 52.4363 18.5353 56.6908 24.7767ZM39.9055 11.819C42.414 8.79917 44.1017 4.5935 43.637 0.4104C40.0266 0.553018 35.6601 2.80591 33.0705 5.82385C30.7515 8.49727 28.7149 12.7791 29.2679 16.8768C33.292 17.1865 37.3991 14.8408 39.9055 11.819Z" fill="black"/>
</svg>
