<svg width="79" height="53" viewBox="0 0 79 53" fill="none" xmlns="http://www.w3.org/2000/svg">
<path d="M29.5111 15.616V10.912C29.9737 10.883 30.4363 10.8539 30.8989 10.8539C43.7355 10.4474 52.1487 21.946 52.1487 21.946C52.1487 21.946 43.0706 34.606 33.3274 34.606C32.0264 34.606 30.7543 34.4028 29.54 33.9963V19.7101C34.5417 20.3199 35.5536 22.5267 38.5315 27.5501L45.21 21.9169C45.21 21.9169 40.324 15.4998 32.1131 15.4998C31.2458 15.4708 30.3785 15.5289 29.5111 15.616ZM29.5111 0.0522461V7.07915L30.8989 6.99204C48.7372 6.38227 60.3885 21.6847 60.3885 21.6847C60.3885 21.6847 47.0314 38.0033 33.125 38.0033C31.9108 38.0033 30.7254 37.8872 29.54 37.6839V42.0394C30.523 42.1556 31.5349 42.2427 32.5179 42.2427C45.4702 42.2427 54.8375 35.5933 63.9157 27.7533C65.4191 28.9729 71.5772 31.9056 72.8493 33.1832C64.2337 40.4424 44.1403 46.2788 32.7492 46.2788C31.6506 46.2788 30.6097 46.2207 29.5689 46.1046V52.2313H78.7761V0.0522461L29.5111 0.0522461ZM29.5111 33.9963V37.713C17.5418 35.5642 14.217 23.0494 14.217 23.0494C14.217 23.0494 19.9704 16.6613 29.5111 15.616V19.6811H29.4822C24.4805 19.0713 20.5486 23.7753 20.5486 23.7753C20.5486 23.7753 22.7748 31.7023 29.5111 33.9963ZM8.26124 22.5267C8.26124 22.5267 15.3445 12.0154 29.54 10.912V7.07915C13.8122 8.35677 0.223877 21.7137 0.223877 21.7137C0.223877 21.7137 7.91431 44.072 29.5111 46.1046V42.0394C13.6677 40.0649 8.26124 22.5267 8.26124 22.5267Z" fill="#76B900"/>
</svg>
